<?xml version="1.0" encoding="utf-8"?>
<!-- Generator: Adobe Illustrator 16.0.0, SVG Export Plug-In . SVG Version: 6.00 Build 0)  -->
<!DOCTYPE svg PUBLIC "-//W3C//DTD SVG 1.1//EN" "http://www.w3.org/Graphics/SVG/1.1/DTD/svg11.dtd">
<svg version="1.1" id="Social_Icons" xmlns="http://www.w3.org/2000/svg" xmlns:xlink="http://www.w3.org/1999/xlink" x="0px"
	 y="0px" width="30px" height="30px" viewBox="60 60 30 30" enable-background="new 60 60 30 30" xml:space="preserve">
<g id="_x35__stroke">
	<g id="Google_Plus">
		<rect x="60" y="60" fill="none" width="30" height="30"/>
		<path id="Google_Plus_1_" fill="#FFFFFF" d="M69.528,73.11v3.781c0,0,3.661-0.005,5.151-0.005
			c-0.807,2.45-2.063,3.785-5.151,3.785c-3.126,0-5.566-2.539-5.566-5.671s2.44-5.67,5.566-5.67c1.653,0,2.72,0.582,3.699,1.393
			c0.784-0.785,0.718-0.897,2.713-2.784c-1.693-1.543-3.943-2.484-6.412-2.484C64.266,65.455,60,69.728,60,75
			c0,5.271,4.266,9.545,9.528,9.545c7.866,0,9.788-6.861,9.151-11.435H69.528z M86.698,73.299v-3.308H84.34v3.308h-3.396v2.362
			h3.396v3.402h2.358v-3.401H90v-2.363H86.698z"/>
	</g>
</g>
</svg>
