<?xml version="1.0" encoding="utf-8"?>
<!-- Generator: Adobe Illustrator 16.0.0, SVG Export Plug-In . SVG Version: 6.00 Build 0)  -->
<!DOCTYPE svg PUBLIC "-//W3C//DTD SVG 1.1//EN" "http://www.w3.org/Graphics/SVG/1.1/DTD/svg11.dtd">
<svg version="1.1" id="Layer_1" xmlns="http://www.w3.org/2000/svg" xmlns:xlink="http://www.w3.org/1999/xlink" x="0px" y="0px"
	 width="30px" height="30px" viewBox="0 0 30 30" enable-background="new 0 0 30 30" xml:space="preserve">
<path fill-rule="evenodd" clip-rule="evenodd" fill="#FFFFFF" d="M24.422,23.908c-0.368,0.521-0.827,0.911-1.37,1.191
	c-0.508,0.263-1.045,0.46-1.62,0.518c-0.466,0.047-0.932,0.056-1.402,0.012c-0.432-0.042-0.861-0.09-1.271-0.228
	c-0.467-0.158-0.923-0.349-1.35-0.606c-0.568-0.347-1.066-0.771-1.517-1.255c-0.154-0.164-0.278-0.36-0.422-0.529
	c-0.229-0.27-0.387-0.576-0.564-0.872c-0.227-0.375-0.388-0.785-0.544-1.195c-0.223-0.587-0.327-1.195-0.41-1.809
	c-0.054-0.401-0.101-0.805-0.068-1.209c0.03-0.357,0.078-0.713,0.115-1.07c0.038-0.371,0.118-0.734,0.188-1.1
	c0.017-0.087,0.033-0.18,0.069-0.258c0.157-0.333,0.208-0.703,0.36-1.04c0.215-0.474,0.44-0.942,0.735-1.37
	c0.442-0.636,0.966-1.199,1.612-1.647c0.429-0.295,0.875-0.531,1.36-0.716c0.495-0.19,1.005-0.279,1.528-0.328
	c0.886-0.08,1.757-0.028,2.605,0.242c0.405,0.129,0.799,0.3,1.173,0.516c0.271,0.155,0.518,0.346,0.775,0.526
	c0.048-0.072,0.027-0.14,0.027-0.204c0.003-1.745,0.003-3.489,0.003-5.234c0-0.404,0.067-0.799,0.283-1.143
	c0.21-0.333,0.486-0.593,0.863-0.771c0.327-0.154,0.648-0.184,0.992-0.184c0.679-0.003,1.197,0.299,1.596,0.839
	c0.211,0.287,0.287,0.611,0.338,0.953c0.049,0.324,0.027,0.647,0.03,0.97c0,5.509,0.003,11.015-0.003,16.523
	c0,0.824-0.344,1.466-1.104,1.862c-0.371,0.194-0.754,0.232-1.158,0.199c-0.205-0.017-0.411-0.014-0.604-0.097
	c-0.318-0.139-0.615-0.303-0.831-0.599C24.645,24.529,24.521,24.238,24.422,23.908z M18.053,17.999
	c-0.048,0.319,0.04,0.629,0.088,0.942c0.091,0.574,0.302,1.101,0.592,1.595c0.189,0.319,0.443,0.591,0.727,0.84
	c0.313,0.277,0.693,0.432,1.077,0.535c0.521,0.142,1.062,0.136,1.577-0.069c0.192-0.075,0.393-0.136,0.567-0.239
	c0.385-0.232,0.709-0.544,0.944-0.927c0.283-0.457,0.498-0.941,0.621-1.474c0.097-0.41,0.065-0.835,0.188-1.238
	c0.039-0.13-0.052-0.241-0.063-0.362c-0.012-0.139-0.019-0.277-0.03-0.416c-0.045-0.604-0.238-1.164-0.537-1.682
	c-0.474-0.819-1.197-1.305-2.127-1.474c-0.372-0.068-0.745-0.062-1.112,0.065c-0.299,0.103-0.598,0.184-0.866,0.365
	c-0.372,0.252-0.682,0.564-0.917,0.937c-0.277,0.442-0.488,0.919-0.592,1.439C18.115,17.219,17.993,17.596,18.053,17.999z"/>
<path fill-rule="evenodd" clip-rule="evenodd" fill="#FFFFFF" d="M12.312,13.421c0,2.35,0.004,4.7-0.003,7.049
	c-0.001,0.427-0.039,0.859-0.151,1.27c-0.104,0.383-0.172,0.787-0.359,1.141c-0.151,0.286-0.277,0.587-0.478,0.855
	c-0.208,0.28-0.431,0.539-0.681,0.774c-0.342,0.323-0.734,0.564-1.167,0.764c-0.329,0.15-0.665,0.25-1.005,0.353
	c-0.406,0.122-0.823,0.166-1.244,0.207c-0.455,0.045-0.902,0.003-1.352-0.014c-0.252-0.009-0.513-0.033-0.753-0.104
	c-0.439-0.129-0.903-0.169-1.325-0.36c-0.299-0.137-0.628-0.222-0.895-0.414c-0.319-0.229-0.65-0.439-0.901-0.772
	c-0.201-0.265-0.295-0.554-0.424-0.842c-0.132-0.294-0.143-0.609-0.079-0.89c0.113-0.496,0.342-0.938,0.816-1.234
	c0.248-0.155,0.5-0.236,0.766-0.244C3.37,20.95,3.67,21.01,3.95,21.125c0.249,0.104,0.504,0.198,0.742,0.325
	c0.364,0.195,0.755,0.324,1.142,0.457c0.295,0.101,0.611,0.108,0.924,0.07c0.318-0.041,0.591-0.183,0.818-0.398
	c0.153-0.145,0.228-0.347,0.297-0.547c0.161-0.465,0.165-0.943,0.165-1.424c0-4.437-0.001-8.873,0.002-13.309
	c0-0.345,0.066-0.688,0.238-0.989C8.41,5.078,8.585,4.877,8.799,4.704c0.288-0.232,0.62-0.353,0.969-0.38
	c0.527-0.042,1.067-0.058,1.543,0.234c0.336,0.205,0.597,0.474,0.777,0.844c0.201,0.415,0.223,0.836,0.223,1.273
	C12.313,8.923,12.312,11.172,12.312,13.421z"/>
<path fill-rule="evenodd" clip-rule="evenodd" fill="none" d="M18.053,17.999c-0.06-0.403,0.063-0.78,0.136-1.163
	c0.104-0.52,0.314-0.997,0.592-1.439c0.235-0.373,0.545-0.685,0.917-0.937c0.269-0.181,0.567-0.262,0.866-0.365
	c0.367-0.127,0.74-0.133,1.112-0.065c0.93,0.169,1.653,0.655,2.127,1.474c0.299,0.518,0.492,1.077,0.537,1.682
	c0.012,0.139,0.019,0.277,0.03,0.416c0.012,0.121,0.103,0.232,0.063,0.362c-0.122,0.403-0.091,0.828-0.188,1.238
	c-0.123,0.532-0.338,1.017-0.621,1.474c-0.235,0.383-0.56,0.694-0.944,0.927c-0.175,0.104-0.375,0.164-0.567,0.239
	c-0.516,0.205-1.056,0.211-1.577,0.069c-0.384-0.104-0.764-0.258-1.077-0.535c-0.283-0.249-0.537-0.521-0.727-0.84
	c-0.29-0.494-0.501-1.021-0.592-1.595C18.093,18.628,18.005,18.318,18.053,17.999z"/>
</svg>
